<svg xmlns="http://www.w3.org/2000/svg" width="144" height="147" fill="none" viewBox="0 0 144 147">
  <g filter="url(#filter0_d_106_35)">
    <path fill="#08D9D6" d="M4 67.792L71.51 0l67.509 67.792-67.51 67.792L4 67.792z"/>
  </g>
  <path fill="#323232" d="M63.8 79.582h13.438v2.698H63.8v-2.698zM66.488 84.98h8.063v2.698h-8.063v-2.699zM70.52 49.895a13.409 13.409 0 00-9.502 3.953 13.522 13.522 0 00-3.936 9.541 12.445 12.445 0 001.091 5.703 12.393 12.393 0 003.558 4.58c1.344 1.254 2.07 1.97 2.07 3.21h2.687c0-2.482-1.492-3.872-2.943-5.208a9.709 9.709 0 01-2.915-3.67 9.75 9.75 0 01-.86-4.615c0-2.863 1.132-5.609 3.148-7.633a10.728 10.728 0 017.601-3.162c2.851 0 5.586 1.137 7.602 3.162a10.818 10.818 0 013.148 7.633 9.751 9.751 0 01-.867 4.617 9.708 9.708 0 01-2.922 3.668c-1.438 1.35-2.93 2.699-2.93 5.209h2.688c0-1.242.712-1.957 2.07-3.225a12.38 12.38 0 003.556-4.572 12.433 12.433 0 001.093-5.697c0-1.772-.348-3.527-1.023-5.164a13.498 13.498 0 00-2.913-4.377 13.436 13.436 0 00-4.36-2.925 13.39 13.39 0 00-5.142-1.028z"/>
  <defs>
    <filter id="filter0_d_106_35" width="143.019" height="146.584" x="0" y="0" color-interpolation-filters="sRGB" filterUnits="userSpaceOnUse">
      <feFlood flood-opacity="0" result="BackgroundImageFix"/>
      <feColorMatrix in="SourceAlpha" result="hardAlpha" values="0 0 0 0 0 0 0 0 0 0 0 0 0 0 0 0 0 0 127 0"/>
      <feOffset dy="7"/>
      <feGaussianBlur stdDeviation="2"/>
      <feComposite in2="hardAlpha" operator="out"/>
      <feColorMatrix values="0 0 0 0 0 0 0 0 0 0 0 0 0 0 0 0 0 0 0.49 0"/>
      <feBlend in2="BackgroundImageFix" result="effect1_dropShadow_106_35"/>
      <feBlend in="SourceGraphic" in2="effect1_dropShadow_106_35" result="shape"/>
    </filter>
  </defs>
</svg>
