<svg xmlns="http://www.w3.org/2000/svg" width="144" height="147" fill="none" viewBox="0 0 144 147">
  <g filter="url(#filter0_d_106_34)">
    <path fill="#08D9D6" d="M4 67.51L71.51 0l67.509 67.51-67.51 67.509L4 67.509z"/>
  </g>
  <path fill="#323232" d="M85.852 51.984a1.795 1.795 0 00-1.772-.141L53.62 66.176a1.791 1.791 0 00.047 3.263l9.675 4.233v12.044l10.456-7.468 8.536 3.734a1.792 1.792 0 002.506-1.523l1.792-26.875a1.8 1.8 0 00-.781-1.6zm-4.419 25.693l-9.44-4.132 5.683-11.12-13.704 7.614-5.253-2.299 24.135-11.36-1.42 21.297z"/>
  <defs>
    <filter id="filter0_d_106_34" width="143.019" height="146.019" x="0" y="0" color-interpolation-filters="sRGB" filterUnits="userSpaceOnUse">
      <feFlood flood-opacity="0" result="BackgroundImageFix"/>
      <feColorMatrix in="SourceAlpha" result="hardAlpha" values="0 0 0 0 0 0 0 0 0 0 0 0 0 0 0 0 0 0 127 0"/>
      <feOffset dy="7"/>
      <feGaussianBlur stdDeviation="2"/>
      <feComposite in2="hardAlpha" operator="out"/>
      <feColorMatrix values="0 0 0 0 0 0 0 0 0 0 0 0 0 0 0 0 0 0 0.5 0"/>
      <feBlend in2="BackgroundImageFix" result="effect1_dropShadow_106_34"/>
      <feBlend in="SourceGraphic" in2="effect1_dropShadow_106_34" result="shape"/>
    </filter>
  </defs>
</svg>
